<?xml version="1.0" encoding="UTF-8"?>
<svg version="1.1" id="svg2200" xmlns:svg="http://www.w3.org/2000/svg" xmlns="http://www.w3.org/2000/svg" xmlns:xlink="http://www.w3.org/1999/xlink" x="0px" y="0px" width="300px" height="300px" viewBox="-101.982 -101.457 300 300" enable-background="new -101.982 -101.457 300 300" xml:space="preserve">
<path id="path11" fill="#ffbb36" d="M121.172-57.676c0.685-1.687-0.71-3.343-0.71-3.343s-10.958-18.642-49.729-22.778  c-20.759-2.212-49.02,1.988-68.829,12.67C-33.987-51.788-39.361-19.93-39.361-19.93c-0.202,0.78-0.546,3.155,0.261,4.168  c0.822,1.031,2.018,1.012,3.502,0.511c12.667-4.279,50.421-16.799,74.246-23.122c33.906-8.989,61.759-14.459,79.637-17.505  C119.554-56.093,120.693-56.509,121.172-57.676"/>
<path id="path13" fill="#0066b3" d="M159.888,92.469c-20.294,45.576-59.228,77.294-110.254,78.017  c-37.157,0.527-69.948-12.203-93.63-34.407l-14.323,6.128l0.024-22.176c-15.605-21.049-24.653-47.674-24.653-77.92  c0-77.468,59.335-138.534,142.087-138.534c13.507,0,25.715,2.102,34.919,4.187c-14.181-4.538-28.272-6.997-43.957-6.997  c-88.812,0-148.58,72.014-148.583,146.28c0,80.931,63.489,148.72,146.823,148.72c79.595,0,122.538-56.117,136.271-89.866  L159.888,92.469"/>
<path id="path15" fill="#ec1d23" d="M139.287,76.457c11.679-1.325,19.759-6.019,24.194-10.373c4.042-3.971,4.985-9.439,4.991-13.501  c0.163-5.968,0-24.801,0-24.801l-30.907,6.687c0,0-0.003,2.33-0.012,7.22c0.057,4.776,2.359,7.376,7.365,6.455  c1.569-0.257,3.984-1.027,3.984-1.027l0.042,5.902c-0.027-0.169,0.457,3.291-7.332,4.831c-10.193,1.6-14.825-4.672-14.946-15.755  c0.201-11.878,6.917-18.728,15.064-20.604c9.166-2.102,14.354,0.082,17.403,0.547c10.237,1.533,13.14-13.815,3.828-17.415  c-6.884-2.773-15.815-3.274-24.329-1.574c-11.368,2.267-33.724,11.782-33.786,42.699C104.907,70.315,123.019,78.321,139.287,76.457"/>
<path id="path17" fill="#ec1d23" d="M38.819,102.788c0,0,9.483-3.253,10.303-3.541c7.622-2.63,10.399-7.162,10.365-15.006  c-0.096-8.517-0.11-25.125-0.11-25.125l22.05,25.407c3.582,3.699,8.071,4.015,12.181,2.809c4.249-1.244,7.787-5.129,7.894-10.608  c0.035-18.347-0.009-63.125-0.009-63.125s-5.698,1.209-10.428,2.55c-5.442,1.542-9.629,5.012-9.629,14.172  c0,3.243-0.012,21.853-0.012,21.853S69.014,36.61,60.899,28.492c-4.339-4.334-11.518-1.747-11.518-1.747l-10.58,3.202  L38.819,102.788"/>
<path id="path19" fill="#ec1d23" d="M32.143,31.588c0,0-6.641,1.948-12.045,3.899c-7.017,2.537-11.062,6.597-11.062,17.219  c0,9.756-0.017,60.533-0.017,60.533s6.147-2.102,11.878-4.264c8.148-3.072,11.222-7.263,11.222-15.819  C32.119,85.803,32.143,31.588,32.143,31.588"/>
<path id="path21" fill="#ec1d23" d="M-0.812,45.992c-6.095-2.769-11.327,0.319-13.549,3.732l-18.735,31.865L-33.129,55.9  l-22.086,9.149l-0.069,72.646l15.558-6.522c0,0,3.054-0.866,4.897-3.762c1.694-2.668,1.631-7.143,1.631-7.143l0.019-23.036  l17.388,18.451c3.818,3.965,10.833,6.001,17.023,1.001c5.597-4.52,4.73-12.226,1.608-15.677L-13,85.062  c0,0,13.94-21.97,16.219-25.641C6.244,54.545,4.722,48.506-0.812,45.992"/>
<path id="path23" fill="#ffbb36" d="M-9.462,131.383c-0.822,1.894,1.053,3.773,1.053,3.773  c8.039,10.087,43.732,22.877,82.474,13.513c59.165-14.309,71.666-56.166,73.082-62.076c0.291-1.205,0.521-3.143-0.597-4.306  c-0.938-0.971-2.271-0.981-4.121-0.553c-41.093,9.66-109.474,30.533-148.898,47.425C-8.166,129.886-8.934,130.153-9.462,131.383"/>
<path id="path25" fill="#ec1d23" d="M-44.551,36.177c-0.054-4.004-3.167-6.189-8.546-3.489l-0.011,12.872  c0,0,1.739-0.77,3.015-1.364C-46.948,42.737-44.477,40.113-44.551,36.177 M-53.203,24.542c0.958-0.374,1.662-0.689,2.466-1.081  c2.914-1.419,4.988-4.051,5.012-7.459c0.03-3.881-3.166-4.884-7.472-2.658L-53.203,24.542z M-30.432,34.338  c0.175,10.159-7.143,15.564-16.676,19.514l-19.528,8.296l-0.045-52.905c0,0,12.303-5.016,16.317-6.476  c11.41-4.152,18.119,0.853,18.119,8.475c0,5.086-2.177,9.409-6.902,13.208C-34.494,25.226-30.521,29.048-30.432,34.338z"/>
<path id="path27" fill="#ec1d23" d="M6.638-10.316c0-4.456-3.065-5.641-6.772-4.574c-2.997,0.858-6.488,2.221-6.488,2.221  l-0.024,32.891c-0.036,3.276-0.543,7.377-4.579,8.393c-3.098,0.781-4.563-1.286-4.566-4.556l-0.044-26.921  c0-4.479-3.116-5.82-6.811-4.594c-4.154,1.387-6.65,2.386-6.65,2.386s0.048,23.291-0.009,32.605  c-0.053,10.918,7.475,16.369,18.949,12.98c10.122-2.993,16.881-8.657,17.009-23.198L6.638-10.316"/>
<path id="path29" fill="#ec1d23" d="M115.166,3.277c2.916-0.629,4.735-2.691,4.735-6.254c0-3.21,0.012-5.651,0.012-5.651  l-15.84,3.461l0.029-9.319c0,0,7.764-1.646,9.92-2.116c2.709-0.594,4.128-2.071,4.128-5.167c0-2.888-0.018-5.387-0.018-5.387  l-14.035,2.978l-0.003-7.389c0,0,7.296-1.523,11.228-2.349c3.063-0.644,4.074-2.742,4.074-5.629c0-1.88,0.03-5.601,0.03-5.601  c-7.001,1.236-20.309,3.895-28.608,5.796L90.705,8.878C90.705,8.878,106.486,5.161,115.166,3.277"/>
<path id="path31" fill="#ec1d23" d="M23.633,1.329c0.011-0.009,7.836-4.051,7.75-10.463c-0.077-5.483-5.127-4.283-7.747-3.322  L23.633,1.329 M23.653,8.769c0,0-0.026,9.236-0.039,12.963c-0.032,3.494-2.418,6.017-5.438,7.171c0,0.112,0-0.105,0,0  c-2.525,0.866-7.891,2.713-7.891,2.713l0.021-49.663c0,0,11.08-3.86,17.596-5.374c10.125-2.355,17.326,2.252,17.196,10.431  c-0.063,7.787-4.407,12.512-8.309,15.747l8.575,8.233c2.635,2.553,2.819,7.168-0.145,9.957c-1.757,1.651-6.457,3.362-10.137-0.383  L23.653,8.769z"/>
<path id="path33" fill="#ec1d23" d="M135.763-25.382c0.016,0,7.73-2.938,7.642-9.123c-0.08-5.231-5.231-4.284-7.662-3.741  L135.763-25.382 M122.818,1.831l0.021-47.62c0,0,13.904-2.458,17.495-2.92c9.968-1.28,16.656,4.252,16.519,12.111  c-0.053,6.911-4.395,11.07-8.085,13.565c0,0,6.78,7.639,8.597,9.66c2.441,2.724,2.332,7.381-1.279,9.662  c-3.549,2.238-7.065,1.067-9.106-1.187l-11.193-13.127c0,0,0.036,8.074,0.027,11.599c-0.033,3.509-2.063,6.067-5.703,6.82  L122.818,1.831z"/>
<path id="path35" fill="#ec1d23" d="M87.587-18.156l-19.724,4.479c0,0-0.024,2.084-0.027,5.486c0.027,2.551,1.816,4.207,4.39,3.677  c1.623-0.337,2.922-0.638,2.922-0.638l0.03,5.478c0.021,2.167-3.231,3.586-6.608,3.508c-4.732-0.123-7.356-3.8-7.424-10.797  c0.147-9.2,4.475-14.601,10.37-16.109c2.944-0.758,5.623-0.389,7.704-0.119c5.082,0.821,8.008-1.629,8.112-5.829  c0.106-4.498-3.884-7.28-12.448-6.983C56.314-35.362,46.819-22.02,46.819-6.097c0,16.307,10.653,23.51,23.656,21.16  c7.348-1.482,11.003-3.868,13.536-6.089c2.532-2.221,3.576-5.543,3.576-8.38V-18.156"/>
<path id="path37" fill="#FFFFFF" d="M9.878-71.492c-21.752,9.602-36.438,32.458-37.245,42.133c-0.318,3.846,4.781,4.398,5.261,0.314  C-17.516-46.693-3.468-63.332,9.878-71.492"/>
<path id="path39" fill="#FFFFFF" d="M81.958-55.093c11.732-2.878,18.175-3.312,18.291-8.553c0.204-8.776-24.834-18.952-47.76-17.109  c23.359,1.561,37.371,10.554,37.448,16.821C89.981-59.97,86.546-56.472,81.958-55.093"/>
<path id="path41" fill="#FFFFFF" d="M89.228,138.883c17.604-6.924,34.521-20.15,43.88-39.961c2.701-5.725-5.109-8.65-7.314-1.927  C120.316,111.08,109.058,127.618,89.228,138.883"/>
<path id="path43" fill="#ec1d23" d="M177.883,79.364h2.403c1.306,0,2.955,0.238,2.955,1.783c0,1.751-1.204,1.988-2.813,1.988h-2.546  V79.364 M175.034,91.512h2.849v-6.142h1.786l3.501,6.142h2.988l-3.846-6.278c2.128-0.178,3.774-1.204,3.774-3.845  c0-3.126-2.026-4.263-5.626-4.263h-5.427V91.512L175.034,91.512z M166.969,84.337c0,7.824,6.211,12.873,13.178,12.873  c6.971,0,13.184-5.049,13.184-12.873c0-7.792-6.213-12.806-13.184-12.806C173.179,71.532,166.969,76.545,166.969,84.337z   M170.469,84.337c0-5.837,4.285-10.059,9.677-10.059c5.326,0,9.682,4.222,9.682,10.059c0,5.873-4.355,10.127-9.682,10.127  C174.755,94.464,170.469,90.21,170.469,84.337z"/>
</svg>