<?xml version="1.0" encoding="UTF-8" standalone="no"?>
<!-- Created with Inkscape (http://www.inkscape.org/) -->

<svg
   xmlns:dc="http://purl.org/dc/elements/1.1/"
   xmlns:cc="http://creativecommons.org/ns#"
   xmlns:rdf="http://www.w3.org/1999/02/22-rdf-syntax-ns#"
   xmlns:svg="http://www.w3.org/2000/svg"
   xmlns="http://www.w3.org/2000/svg"
   xmlns:sodipodi="http://sodipodi.sourceforge.net/DTD/sodipodi-0.dtd"
   xmlns:inkscape="http://www.inkscape.org/namespaces/inkscape"
   id="svg4136"
   version="1.1"
   inkscape:version="0.91 r13725"
   width="390"
   height="417"
   viewBox="0 0 390 417"
   sodipodi:docname="hamburguesa_web.svg">
  <metadata
     id="metadata4142">
    <rdf:RDF>
      <cc:Work
         rdf:about="">
        <dc:format>image/svg+xml</dc:format>
        <dc:type
           rdf:resource="http://purl.org/dc/dcmitype/StillImage" />
        <dc:title></dc:title>
      </cc:Work>
    </rdf:RDF>
  </metadata>
  <defs
     id="defs4140" />
  <sodipodi:namedview
     pagecolor="#ffffff"
     bordercolor="#666666"
     borderopacity="1"
     objecttolerance="10"
     gridtolerance="10"
     guidetolerance="10"
     inkscape:pageopacity="0"
     inkscape:pageshadow="2"
     inkscape:window-width="1920"
     inkscape:window-height="1018"
     id="namedview4138"
     showgrid="false"
     inkscape:zoom="1.0179856"
     inkscape:cx="78.243353"
     inkscape:cy="161.09418"
     inkscape:window-x="-8"
     inkscape:window-y="-8"
     inkscape:window-maximized="1"
     inkscape:current-layer="svg4136" />
  <path
     inkscape:connector-curvature="0"
     style="fill:#000000"
     d="m 89.256184,343.94947 -33.45,-0.15 -1.95,-0.70293 c -4.480107,-1.61493 -9.115278,-6.1713 -11.976396,-11.77281 -0.980097,-1.91883 -2.00862,-4.26834 -2.285604,-5.22114 -0.303678,-1.0446 -0.5931,-1.58757 -0.729021,-1.36765 -0.13224,0.21397 -0.220176,0.0134 -0.212754,-0.48538 0.007,-0.46755 -0.290247,-2.26759 -0.660459,-4.00009 -1.189113,-5.56475 -1.567659,-12.42594 -0.654429,-11.86154 0.252828,0.15626 288.814839,0.2433 289.591209,0.0874 0.29049,-0.0583 0.35646,0.75358 0.28629,3.52418 -0.24327,9.60571 -4.10931,20.39493 -9.21756,25.72425 -0.61905,0.64581 -0.98634,1.27194 -0.8631,1.47135 0.13812,0.22347 0.0825,0.2655 -0.15621,0.11799 -0.22173,-0.13707 -0.69243,0.0676 -1.17135,0.50946 -1.40472,1.29594 -3.44361,2.51364 -5.45061,3.25536 l -1.95,0.72066 -44.65825,0.0587 c -24.56203,0.0323 -44.71173,0.1122 -44.77711,0.17757 -0.0654,0.0654 -0.75917,0.0135 -1.54176,-0.11535 -2.33986,-0.3852 -6.00141,-0.32292 -6.17504,0.105 -0.11958,0.29472 -0.2116,0.29052 -0.42975,-0.0195 -0.34316,-0.48768 -6.28849,-0.42642 -6.94188,0.0716 -0.3095,0.23586 -0.45782,0.22182 -0.55,-0.052 -0.15409,-0.45783 -3.37621,-0.52395 -3.37621,-0.0693 0,0.1755 -0.31641,0.22629 -0.74303,0.11922 -0.87921,-0.22068 -76.32241,-0.34401 -76.43196,-0.12495 -0.0413,0.0825 -15.12751,0.0825 -33.525016,0 z"
     id="path4184" />
  <path
     inkscape:connector-curvature="0"
     style="fill:#000000"
     d="m 323.25619,330.74947 c 0,-0.165 0.14298,-0.3 0.3177,-0.3 0.17475,0 0.23427,0.135 0.1323,0.3 -0.10197,0.165 -0.24495,0.3 -0.3177,0.3 -0.0728,0 -0.1323,-0.135 -0.1323,-0.3 z"
     id="path4182" />
  <path
     inkscape:connector-curvature="0"
     style="fill:#000000"
     d="m 56.143495,300.11619 c -0.639477,-0.15015 -1.832811,-0.60959 -2.651853,-1.02097 -0.819042,-0.41138 -1.632942,-0.65911 -1.808664,-0.55051 -0.202998,0.12546 -0.229956,0.0526 -0.07393,-0.19987 0.177945,-0.28792 0.109089,-0.34496 -0.25005,-0.20715 -0.272589,0.1046 -0.46578,0.0938 -0.429315,-0.024 0.03647,-0.11781 -0.629679,-0.90605 -1.480317,-1.75163 -1.694532,-1.68448 -3.198792,-4.36767 -3.71001,-6.61766 -0.365343,-1.60797 -0.488385,-5.6897 -0.180786,-5.9973 0.108685,-0.10872 0.197614,-0.4827 0.197614,-0.83111 0,-0.3484 0.457137,-1.58734 1.01586,-2.7532 1.171431,-2.44437 3.50964,-4.94201 5.786832,-6.18141 3.40839,-1.85508 -6.50574,-1.72313 129.397314,-1.72228 106.73412,6e-4 124.33413,0.061 126.08556,0.4321 1.11954,0.23724 2.26704,0.35716 2.55,0.26649 0.39246,-0.12574 0.4185,-0.0962 0.1098,0.12449 -0.30669,0.21928 -0.0162,0.51574 1.2,1.22457 2.22303,1.29567 3.69687,2.70801 4.88514,4.68135 0.55698,0.92496 1.07085,1.57591 1.14192,1.44655 0.0711,-0.12936 0.0896,-0.0702 0.0411,0.13135 -0.0781,0.32474 0.20826,1.45042 0.70809,2.78346 0.31338,0.83581 0.074,5.2376 -0.38208,7.02546 -0.46065,1.80564 -1.269,3.40093 -2.31945,4.57733 -0.33579,0.37604 -0.48633,0.80904 -0.35514,1.02135 0.13995,0.2264 0.10353,0.29176 -0.0944,0.16945 -0.41943,-0.25922 -1.33617,0.65751 -1.07694,1.07695 0.12231,0.1979 0.0569,0.2343 -0.16944,0.0944 -0.21471,-0.1327 -0.64143,0.0286 -1.02225,0.38631 -0.92649,0.8704 -3.71535,2.09099 -5.58981,2.44647 -2.06517,0.39166 -249.854847,0.36113 -251.524785,-0.031 z"
     id="path4180" />
  <path
     inkscape:connector-curvature="0"
     style="fill:#000000"
     d="m 316.05619,295.66718 c 0,-0.15527 0.13344,-0.36478 0.29655,-0.46559 0.17007,-0.1051 0.22038,0.0153 0.11793,0.2823 -0.19944,0.51972 -0.41448,0.61481 -0.41448,0.18329 z"
     id="path4178" />
  <path
     inkscape:connector-curvature="0"
     style="fill:#000000"
     d="m 43.703551,284.84947 c 0,-0.4125 0.06809,-0.58125 0.151317,-0.375 0.08322,0.20625 0.08322,0.54375 0,0.75 -0.08322,0.20625 -0.151317,0.0375 -0.151317,-0.375 z"
     id="path4176" />
  <path
     inkscape:connector-curvature="0"
     style="fill:#000000"
     d="m 111.98119,264.55079 c 0.20625,-0.0832 0.54375,-0.0832 0.75,0 0.20625,0.0832 0.0375,0.15131 -0.375,0.15131 -0.4125,0 -0.58125,-0.0681 -0.375,-0.15131 z"
     id="path4174" />
  <path
     inkscape:connector-curvature="0"
     style="fill:#000000"
     d="m 55.949041,263.99947 c -0.0039,-0.0825 -0.01035,-2.68125 -0.01428,-5.775 l -0.0071,-5.625 126.190259,0 126.19025,0 -0.0382,5.52349 c -0.021,3.03791 -0.10818,5.63666 -0.19368,5.775 -0.16227,0.26255 -252.114682,0.36399 -252.12718,0.10151 z"
     id="path4172" />
  <path
     inkscape:connector-curvature="0"
     style="fill:#000000"
     d="m 44.499934,244.74454 c 0.216561,-0.0867 0.475311,-0.076 0.575001,0.0237 0.09969,0.0997 -0.0775,0.17059 -0.39375,0.15756 -0.349485,-0.0144 -0.42057,-0.0855 -0.181251,-0.18125 z"
     id="path4170" />
  <path
     inkscape:connector-curvature="0"
     style="fill:#000000"
     d="m 225.98119,244.75054 c 0.20625,-0.0832 0.54375,-0.0832 0.75,0 0.20625,0.0832 0.0375,0.15131 -0.375,0.15131 -0.4125,0 -0.58125,-0.0681 -0.375,-0.15131 z"
     id="path4168" />
  <path
     inkscape:connector-curvature="0"
     style="fill:#000000"
     d="m 73.117695,247.05042 c -0.861437,-0.11381 -1.840344,-0.26349 -2.175347,-0.33262 -0.335004,-0.0691 -0.804878,-0.14061 -1.044167,-0.15886 -1.306917,-0.0997 -5.759181,-2.04711 -7.683998,-3.36103 -3.221606,-2.19915 -4.137587,-3.34921 -4.16915,-5.23457 -0.03134,-1.87221 0.872781,-3.20157 2.716019,-3.99342 1.957305,-0.84087 3.860226,-0.48752 5.688076,1.05621 1.008031,0.85135 2.890359,1.96918 4.208405,2.49919 1.627683,0.65451 4.280097,1.10114 5.926259,0.99788 1.539797,-0.0966 3.536251,-0.53544 4.889786,-1.07487 1.046193,-0.41693 2.964899,-1.52989 3.565023,-2.0679 0.366943,-0.32896 2.714669,-2.15952 3.441914,-2.68371 1.303319,-0.93942 4.300313,-2.39969 6.063748,-2.95452 2.736119,-0.86087 4.164785,-1.06182 7.549067,-1.06182 3.88357,0 4.80424,0.1102 7.48319,0.89571 1.40803,0.41286 3.82138,1.342 4.00265,1.54103 0.0479,0.0525 0.3182,0.20223 0.60077,0.33264 0.97427,0.44962 3.19141,1.98084 4.54332,3.13773 1.85825,1.5902 3.1431,2.35191 5.38459,3.19219 2.05473,0.77029 4.99939,0.96553 7.25891,0.48132 2.86126,-0.61315 4.84756,-1.53807 6.72325,-3.13065 4.38557,-3.72361 8.12316,-5.50128 13.25319,-6.30347 3.16304,-0.49462 8.39154,-0.12393 11.32237,0.80272 0.86498,0.27348 4.20509,1.68538 4.34013,1.8346 0.0478,0.0529 0.25962,0.17879 0.47058,0.27976 0.50175,0.24018 2.6747,1.72559 3.01021,2.05776 0.36991,0.36625 2.40707,1.9357 3.13227,2.41314 2.96722,1.95351 6.84091,2.72011 10.3819,2.05457 2.88352,-0.54197 4.94429,-1.54115 7.1949,-3.48847 1.27613,-1.10414 3.28233,-2.5194 4.13886,-2.9197 0.3142,-0.14685 0.53041,-0.32713 0.48045,-0.40062 -0.0499,-0.0735 0.006,-0.1258 0.12483,-0.11623 0.11861,0.01 0.84216,-0.2682 1.60788,-0.61729 1.58915,-0.72448 3.05393,-1.21798 4.43771,-1.49511 0.52644,-0.10543 1.15294,-0.26584 1.39222,-0.35648 0.6093,-0.23078 6.28987,-0.33833 7.65723,-0.14497 0.62215,0.088 1.66671,0.2705 2.32126,0.40559 3.90914,0.8068 8.0547,2.91435 11.0148,5.59982 3.61125,3.27619 8.92546,4.54269 13.71867,3.26948 0.98914,-0.26274 3.37483,-1.28983 3.71711,-1.60029 0.12648,-0.11472 0.28636,-0.20858 0.35529,-0.20858 0.069,0 0.6311,-0.4217 1.24928,-0.9371 1.65478,-1.3797 2.38333,-1.67623 4.08501,-1.6627 1.19938,0.01 1.51081,0.0729 2.22251,0.45214 0.96991,0.51681 1.98388,1.58073 2.22,2.32936 0.0916,0.29055 0.16663,1.03379 0.16663,1.65164 0,1.63276 -0.60842,2.53436 -2.87382,4.25874 -0.57168,0.43515 -1.15001,0.88616 -1.28516,1.00223 -0.13515,0.11607 -0.40977,0.27506 -0.61029,0.35329 -0.20049,0.0782 -0.6778,0.32257 -1.06066,0.54296 -0.61028,0.3513 -1.68533,0.83977 -3.48055,1.58146 -0.95462,0.39439 -2.06981,0.69144 -3.91563,1.04297 -2.42,0.4609 -6.67647,0.50379 -8.87542,0.0894 -1.73948,-0.32777 -4.01592,-0.89652 -4.26411,-1.06534 -0.096,-0.0653 -0.605,-0.27275 -1.13119,-0.46105 -1.56477,-0.55998 -4.58587,-2.31832 -5.84589,-3.40243 -2.57578,-2.21621 -3.31671,-2.73649 -4.83062,-3.39202 -2.5732,-1.11421 -5.4467,-1.50555 -8.28454,-1.12825 -1.56234,0.20771 -1.76189,0.26707 -3.57511,1.06343 -1.98684,0.8726 -2.28878,1.06332 -4.36854,2.75933 -2.96861,2.42084 -5.32161,3.73636 -8.5855,4.79999 -4.34415,1.41566 -10.44808,1.46801 -14.89042,0.12772 -3.73934,-1.1282 -6.71133,-2.86457 -10.27485,-6.00304 -0.97607,-0.85965 -3.45497,-2.05745 -5.21362,-2.51924 -2.04791,-0.53773 -5.77183,-0.44289 -7.89308,0.20103 -1.10955,0.33681 -3.33172,1.34008 -3.33172,1.50422 0,0.0738 -0.0875,0.13417 -0.19455,0.13417 -0.22423,0 -0.9413,0.54221 -2.71675,2.05421 -1.5617,1.32997 -4.03518,2.88355 -5.5784,3.50376 -0.64286,0.25836 -1.32547,0.53758 -1.51689,0.62048 -1.67288,0.72444 -5.1403,1.40085 -7.83247,1.52793 -3.4816,0.16435 -7.79018,-0.64224 -11.04954,-2.06854 -1.28197,-0.56098 -1.92779,-0.91755 -3.89489,-2.15044 -0.55533,-0.34806 -1.48592,-1.0659 -2.45713,-1.89541 -1.32213,-1.12921 -3.04261,-2.27039 -3.91563,-2.5972 -0.43072,-0.16124 -0.92153,-0.35843 -1.09068,-0.4382 -0.78157,-0.36857 -3.27177,-0.76974 -4.78461,-0.77078 -1.53168,-8.7e-4 -4.342074,0.43409 -5.049649,0.78186 -0.164921,0.0811 -0.808888,0.37241 -1.431038,0.64745 -1.20773,0.53392 -2.120868,1.1485 -3.654584,2.45973 -3.57959,3.06029 -7.225019,4.77158 -12.094933,5.6778 -1.882759,0.35035 -5.204477,0.43333 -7.135141,0.17824 z"
     id="path4166" />
  <path
     inkscape:connector-curvature="0"
     style="fill:#000000"
     d="m 35.556184,243.76718 c 0,-0.15527 0.133455,-0.36478 0.296565,-0.46559 0.170058,-0.1051 0.22035,0.0153 0.117903,0.2823 -0.199437,0.51972 -0.414468,0.61481 -0.414468,0.18329 z"
     id="path4164" />
  <path
     inkscape:connector-curvature="0"
     style="fill:#000000"
     d="m 215.55619,243.64947 c 0,-0.27794 0.23316,-0.49796 0.525,-0.49541 0.2996,0.003 0.3962,0.10072 0.225,0.2285 -0.165,0.12314 -0.40125,0.34607 -0.525,0.4954 -0.12375,0.14933 -0.225,0.0465 -0.225,-0.22849 z"
     id="path4162" />
  <path
     inkscape:connector-curvature="0"
     style="fill:#000000"
     d="m 47.80172,225.87251 c -3.674694,1.40187 -6.875083,1.83545 -10.489018,1.42102 -1.737758,-0.19928 -4.804845,-0.97205 -6.121278,-1.5423 -1.398499,-0.6058 -3.749361,-2.42905 -4.857665,-3.76744 -2.98312,-3.60242 -7.750331,-14.54163 -8.207423,-18.83338 -0.0386,-0.36243 -0.329797,-2.14755 -0.64711,-3.96695 -0.317308,-1.8194 -0.57945,-3.79131 -0.58254,-4.38203 -0.0031,-0.59071 -0.04649,-1.99623 -0.09646,-3.12337 -0.04997,-1.12714 -0.104248,-2.35898 -0.120626,-2.73743 -0.04494,-1.03849 0.344821,-6.761 0.527281,-7.74167 0.08801,-0.47305 0.0099,-0.93687 -0.173628,-1.03071 -0.186967,-0.0956 -0.157029,-0.21046 0.06807,-0.26126 0.220945,-0.0499 0.466704,-0.61009 0.54612,-1.24497 0.119206,-0.95301 0.05586,-1.1586 -0.363215,-1.17886 -0.391633,-0.0189 -0.379994,-0.0785 0.05094,-0.2605 0.414781,-0.17521 0.463972,-0.3592 0.19105,-0.71485 -0.202127,-0.26339 -0.207272,-0.36582 -0.01143,-0.22761 0.261202,0.18433 0.439064,-0.0579 0.667594,-0.90917 0.231218,-0.86128 0.194525,-1.16665 -0.142315,-1.1845 -0.339202,-0.018 -0.347355,-0.0676 -0.03227,-0.19663 0.231854,-0.0949 0.891283,-2.00304 1.465383,-4.24025 2.154763,-8.39691 4.67501,-14.9545 9.068413,-23.59567 2.122866,-4.17536 7.076939,-12.41178 9.662389,-16.06425 0.739282,-1.0444 1.765119,-2.50684 2.279622,-3.24988 1.451504,-2.0962 4.127632,-5.49073 4.512417,-5.72376 0.190618,-0.11544 0.394036,-0.37911 0.452048,-0.58591 0.139982,-0.49905 3.749602,-4.87726 6.763532,-8.20365 1.32962,-1.46748 2.84162,-3.14053 3.36,-3.71791 0.51838,-0.57738 1.37928,-1.5013 1.9131,-2.05318 0.53383,-0.55186 1.25745,-1.31157 1.60804,-1.68821 0.35059,-0.37665 1.10847,-1.07979 1.68417,-1.56252 0.5757,-0.48273 2.01828,-1.84959 3.20574,-3.03748 3.67086,-3.672154 12.26114,-11.060014 17.09183,-14.699394 1.32462,-0.99796 4.03438,-3.03873 6.02167,-4.53505 4.96984,-3.742 22.553869,-14.715855 28.634329,-17.870142 4.89317,-2.538363 14.2772,-7.060691 17.37541,-8.373507 9.48132,-4.017564 21.57865,-8.315 27.27568,-9.68937 0.84154,-0.203028 2.49085,-0.644867 3.66512,-0.981876 2.16584,-0.6216 10.77372,-2.590123 11.96957,-2.737316 0.35904,-0.04419 1.85648,-0.30796 3.32766,-0.586145 1.47117,-0.278194 3.90857,-0.633371 5.41643,-0.789299 1.50787,-0.155928 2.83982,-0.343001 2.95989,-0.415716 0.3591,-0.217484 10.97047,-1.02102 13.34827,-1.010791 1.21219,0.0052 2.253,-0.02021 2.31294,-0.05651 0.21498,-0.130201 4.92374,-0.005 5.12365,0.136201 0.11237,0.07939 0.3154,0.07707 0.45114,-0.0051 0.586,-0.35489 11.08997,0.546201 16.96594,1.455458 4.72923,0.731797 14.597,3.612366 18.50214,5.401091 0.91552,0.419353 1.5165,0.517887 1.70184,0.279019 0.20816,-0.268299 0.33431,-0.208312 0.46141,0.21948 0.0962,0.323833 0.24376,0.533758 0.32791,0.466543 0.0842,-0.06723 0.33572,-0.211499 0.55871,-0.321064 0.35578,-0.174315 0.37699,-0.141212 0.17247,0.269333 -0.19787,0.397012 -0.0906,0.508012 0.70517,0.730032 0.51619,0.144009 0.98432,0.337455 1.04029,0.429877 0.056,0.09243 1.28779,0.804839 2.73738,1.583127 1.4496,0.778287 2.98543,1.70747 3.41297,2.064844 0.42751,0.357389 1.06561,0.790847 1.41798,0.963243 0.35235,0.172412 1.42787,0.941503 2.39001,1.709111 0.96214,0.767608 1.99509,1.562481 2.29545,1.766379 0.72267,0.490628 3.479,3.166744 5.56173,5.399889 2.2202,2.38058 3.61631,4.285193 5.96458,8.137099 1.59309,2.61313 1.96129,3.40912 2.00258,4.32869 0.0299,0.66543 0.25537,1.31866 0.55079,1.59543 0.32374,0.30331 0.35045,0.40241 0.0757,0.28086 -0.30011,-0.13278 -0.37379,0.28635 -0.25144,1.4306 0.27554,2.57703 -1.13249,7.24556 -3.11951,10.34316 -0.90659,1.41329 -1.51773,2.63639 -1.35811,2.718 0.15966,0.0816 0.1142,0.14687 -0.10073,0.14483 -0.21504,-0.002 -0.99617,0.63791 -1.73589,1.42186 -1.26753,1.34339 -7.61663,5.22776 -110.37234,67.525854 -88.519859,53.6674 -109.410149,66.24653 -111.061654,66.87663 z"
     id="path4160" />
  <path
     inkscape:connector-curvature="0"
     style="fill:#000000"
     d="m 37.079869,171.87447 c 0.0144,-0.34948 0.08548,-0.42057 0.181248,-0.18125 0.08666,0.21656 0.07601,0.47531 -0.02367,0.575 -0.09969,0.0997 -0.170592,-0.0775 -0.157566,-0.39375 z"
     id="path4158" />
  <path
     inkscape:connector-curvature="0"
     style="fill:#000000"
     d="m 326.00356,168.44947 c 0,-0.4125 0.0681,-0.58125 0.15132,-0.375 0.0832,0.20625 0.0832,0.54375 0,0.75 -0.0832,0.20625 -0.15132,0.0375 -0.15132,-0.375 z"
     id="path4156" />
  <path
     inkscape:connector-curvature="0"
     style="fill:#000000"
     d="m 38.856184,164.68176 c 0,-0.25723 0.135,-0.38427 0.3,-0.28229 0.165,0.10198 0.3,0.31244 0.3,0.46771 0,0.15526 -0.135,0.28229 -0.3,0.28229 -0.165,0 -0.3,-0.21047 -0.3,-0.46771 z"
     id="path4154" />
  <path
     inkscape:connector-curvature="0"
     style="fill:#000000"
     d="m 314.12548,145.43741 c -0.16281,-0.42756 -0.12834,-0.46202 0.16794,-0.16794 0.20502,0.2035 0.29721,0.44557 0.20484,0.53794 -0.0924,0.0924 -0.26013,-0.0741 -0.37278,-0.37 z"
     id="path4152" />
  <path
     inkscape:connector-curvature="0"
     style="fill:#000000"
     d="m 35.556184,63.767176 c 0,-0.155262 0.133455,-0.364776 0.296565,-0.465582 0.170058,-0.105102 0.22035,0.01533 0.117903,0.282294 -0.199437,0.519726 -0.414468,0.614817 -0.414468,0.183288 z"
     id="path4150" />
  <path
     inkscape:connector-curvature="0"
     style="fill:#000000"
     d="m 215.55619,63.767176 c 0,-0.155262 0.13345,-0.364776 0.29656,-0.465582 0.17006,-0.105102 0.22036,0.01533 0.11791,0.282294 -0.19944,0.519726 -0.41447,0.614817 -0.41447,0.183288 z"
     id="path4146" />
  <g
     id="g4702"
     transform="matrix(-0.4627345,-0.32763428,0.32195795,-0.45471752,187.44074,170.23182)">
    <path
       id="path4686"
       d="m -195.26763,283.96393 c -2.6199,-0.85646 -5.43796,-3.23358 -7.47834,-6.30822 -1.28836,-1.94142 -2.87275,-6.66678 -2.87275,-8.56783 0,-0.77317 0.85311,-4.39929 1.89579,-8.05805 3.33937,-11.7178 5.39899,-19.68103 7.14525,-27.62613 0.43715,-1.9889 1.16555,-5.24346 1.61868,-7.23236 0.45313,-1.98889 1.33795,-6.21982 1.96627,-9.40206 0.62832,-3.18224 1.43654,-7.08771 1.79604,-8.67883 1.21896,-5.39511 4.10822,-24.26465 5.50008,-35.92071 2.79747,-23.42727 2.9098,-59.68723 0.2599,-83.895344 -0.75985,-6.94157 -2.62267,-15.57242 -3.97998,-18.44006 -1.12381,-2.37433 -1.27183,-3.09184 -1.03636,-5.02356 0.55764,-4.57461 2.96749,-8.77015 6.58251,-11.46011 3.54901,-2.64085 4.24286,-2.70238 30.36827,-2.69318 26.72631,0.009 27.35181,0.0724 31.05558,3.12956 3.63372,2.99929 5.25643,5.85712 6.05805,10.66917 0.373,2.23904 0.29855,2.71425 -0.83087,5.30373 -1.54684,3.54653 -1.99855,5.18038 -2.83103,10.24008 -0.36384,2.21135 -0.74003,4.16409 -0.83597,4.33942 -0.86489,1.58051 -2.49887,33.779464 -2.48741,49.016644 0.008,10.76487 1.49604,35.04437 2.4721,40.33843 0.1143,0.6199 0.6845,4.7071 1.26713,9.08268 1.14636,8.60912 3.0301,19.91112 4.66105,27.96512 0.56386,2.78445 1.52542,7.66629 2.1368,10.84853 0.61138,3.18224 1.29963,6.32831 1.52944,6.99128 0.22981,0.66297 0.8114,3.04964 1.29243,5.30373 0.48102,2.25408 1.45527,6.37653 2.165,9.16098 0.70972,2.78446 1.75703,6.90691 2.32734,9.16099 0.57032,2.25409 1.2436,4.74925 1.49617,5.54481 2.54547,8.01767 3.00753,10.19849 2.66012,12.55532 -0.78698,5.33891 -3.95066,10.25548 -8.26493,12.84422 l -1.86504,1.1191 -41.16515,0.0819 c -25.75538,0.0512 -41.70459,-0.0945 -42.60617,-0.38921 z"
       style="fill:#000000"
       inkscape:connector-curvature="0" />
    <path
       id="path4684"
       d="m -187.70972,255.97413 c 1.79592,-4.03987 3.70164,-9.00542 5.33143,-13.8916 3.11612,-9.34226 6.25131,-19.76136 8.05223,-26.75972 2.97035,-11.54279 3.38343,-13.17961 4.44133,-17.59874 0.60309,-2.51927 1.21928,-5.44837 1.3693,-6.50912 0.15002,-1.06075 0.56246,-3.1089 0.91654,-4.55146 1.41419,-5.7616 2.91782,-16.76644 4.87901,-35.70866 0.49253,-4.75709 0.66201,-26.75414 0.2266,-29.41159 -0.10862,-0.66297 -0.50613,-4.27491 -0.88335,-8.02654 -1.07065,-10.64795 -1.82082,-14.645414 -4.36687,-23.269884 -2.70982,-9.17921 -6.51622,-16.0025 -9.68207,-17.35592 -1.68522,-0.72044 -2.57715,0.77251 -1.63301,2.73341 2.58748,5.37403 4.28711,24.485814 4.59815,51.704824 0.11779,10.30818 0.0215,21.56482 -0.2166,25.31325 -0.76805,12.09295 -2.19239,29.35573 -2.62564,31.82237 -0.23289,1.32593 -0.81345,5.88232 -1.29013,10.1253 -1.02943,9.16315 -5.01322,35.06474 -5.8463,38.0111 -0.16229,0.574 -0.73331,3.43031 -1.26892,6.34736 -1.17842,6.41787 -2.93233,14.95148 -3.81527,18.56305 -0.76434,3.12646 -0.75139,3.01441 -0.3132,2.7099 0.18991,-0.13198 1.14696,-2.04328 2.12677,-4.24733 z"
       style="fill:#000000"
       inkscape:connector-curvature="0" />
    <path
       id="path4678"
       d="m -177.42575,45.164956 c -4.65794,-1.89314 -6.91608,-6.3532 -5.43781,-10.74024 0.68241,-2.02515 2.08033,-3.52234 4.47388,-4.79152 l 2.14401,-1.13687 22.7266,-0.004 22.7266,-0.004 2.67332,1.42206 c 3.27336,1.74124 4.39802,3.53608 4.40033,7.02245 0.002,3.3925 -1.08309,5.39753 -3.89122,7.18854 l -2.32483,1.48279 -22.941,0.10768 c -18.42177,0.0865 -23.25793,-0.0211 -24.54988,-0.54621 z"
       style="fill:#000000"
       inkscape:connector-curvature="0" />
    <path
       id="path4674"
       d="m -158.20072,23.070166 c -0.3953,-0.67837 -0.75282,-2.88966 -0.91868,-5.68197 -0.28489,-4.79633 0.35551,-16.62549975 1.06473,-19.6670598 0.22826,-0.97891 0.73337,-3.72627 1.12248,-6.10524 0.83675,-5.1158302 2.3864,-8.9339202 3.62603,-8.9339202 1.57724,0 2.63469,3.52005 4.77985,15.9111902 0.20659,1.19334005 0.48924,6.50912 0.62812,11.8128498 0.19475,7.43775 0.12003,10.08422 -0.32674,11.57177 l -0.57924,1.92863 -4.3747,0.13716 c -4.15944,0.13042 -4.40653,0.0825 -5.02185,-0.97341 z"
       style="fill:#000000"
       inkscape:connector-curvature="0" />
  </g>
</svg>
